<?xml version="1.0" standalone="no"?>
<!DOCTYPE svg PUBLIC "-//W3C//DTD SVG 1.1//EN" "http://www.w3.org/Graphics/SVG/1.1/DTD/svg11.dtd" >
<svg xmlns="http://www.w3.org/2000/svg">
<metadata>
This is a custom SVG webfont generated by Font Squirrel.
Copyright   : Copyright c OurType 2002 All rights reserved FrescoSans is a design by Fred Smeijers
Foundry     : OurType
Foundry URL : wwwourtypecom
</metadata>
<defs>
<font id="FrescoSansPlusSCNormalRegular" horiz-adv-x="1216" >
<font-face units-per-em="2048" ascent="1536" descent="-512" />
<missing-glyph horiz-adv-x="512" />
<glyph unicode=" "  horiz-adv-x="512" />
<glyph unicode="&#x09;" horiz-adv-x="512" />
<glyph unicode="&#xa0;" horiz-adv-x="512" />
<glyph unicode="!" horiz-adv-x="528" d="M160 96q0 48 25 80t79 32t79 -32t25 -80t-25 -80t-79 -32t-79 32t-25 80zM176 704v320h168v-320l-48 -320h-72z" />
<glyph unicode="&#x22;" horiz-adv-x="832" d="M160 896v128h168v-128l-48 -256h-72zM504 896v128h168v-128l-48 -256h-72z" />
<glyph unicode="#" d="M64 256v96h248v320h-248v96h248v256h96v-256h400v256h96v-256h248v-96h-248v-320h248v-96h-248v-256h-96v256h-400v-256h-96v256h-248zM408 352h400v320h-400v-320z" />
<glyph unicode="$" d="M216 48v144h16q36 -15 76 -28t81 -23t82.5 -15.5t80.5 -5.5q139 0 205.5 40t66.5 112q0 36 -13.5 63t-38 47.5t-58 36.5t-74.5 29l-168 56q-113 38 -172.5 102.5t-59.5 161.5q0 58 24 104t67.5 79.5t103.5 55t133 29.5v180h136v-178q34 -2 70.5 -7t71 -12.5t64.5 -16 t50 -18.5v-136h-16q-35 13 -74 23t-77 17.5t-73 11.5t-64 4q-117 0 -182.5 -28t-65.5 -100q0 -33 12 -55.5t33 -39t48.5 -27.5t58.5 -22l160 -56q56 -19 105.5 -44.5t86.5 -60t58.5 -81.5t21.5 -110q0 -61 -24 -110.5t-69 -87t-108.5 -61t-142.5 -31.5v-246h-136v242 q-85 3 -158 19t-138 43z" />
<glyph unicode="%" horiz-adv-x="1280" d="M32 784q0 58 17 105t52 80.5t89.5 52t129.5 18.5q78 0 133 -19t89.5 -53.5t50 -81t15.5 -102.5q0 -57 -17 -105.5t-52 -83.5t-89.5 -55t-129.5 -20q-78 0 -132.5 20.5t-89 56t-50.5 84t-16 103.5zM160 0v16l864 992h96v-16l-864 -992h-96zM176 784q0 -33 7 -63.5 t23.5 -53.5t44 -37t69.5 -14t70 14t44.5 37t23 53.5t6.5 63.5t-6.5 62t-23 51t-44.5 34.5t-70 12.5t-69.5 -12.5t-44 -34.5t-23.5 -51t-7 -62zM672 248q0 58 17 105t52 80.5t89.5 52t129.5 18.5q78 0 133 -19t89.5 -53.5t50 -81t15.5 -102.5q0 -57 -17 -105.5t-52 -83.5 t-89.5 -55t-129.5 -20q-78 0 -132.5 20.5t-89 56t-50.5 84t-16 103.5zM816 248q0 -33 7 -63.5t23.5 -53.5t44 -37t69.5 -14t70 14t44.5 37t23 53.5t6.5 63.5t-6.5 62t-23 51t-44.5 34.5t-70 12.5t-69.5 -12.5t-44 -34.5t-23.5 -51t-7 -62z" />
<glyph unicode="&#x26;" horiz-adv-x="1328" d="M80 256q0 43 10 79t36.5 69t73.5 65.5t120 66.5l10 4l-2 4l-44 40q-28 24 -53.5 56t-44 72t-18.5 88q0 51 22 95t62.5 76t98 50.5t129.5 18.5t126 -18.5t90 -50.5t54 -76t18 -95q0 -72 -50 -142.5t-158 -121.5l-8 -4l310 -270q47 53 72.5 112.5t25.5 121.5h-112v120h400 v-120h-152q0 -77 -36 -159.5t-104 -154.5q36 -27 71.5 -42.5t68 -23.5t61.5 -10t51 -2h56v-96q-36 -12 -70.5 -18t-81.5 -6q-69 0 -139 26t-133 74q-72 -47 -160.5 -73.5t-191.5 -26.5q-93 0 -168.5 20t-128.5 56t-82 86t-29 110zM240 272q0 -72 69.5 -116t202.5 -44 q66 0 124 15.5t108 42.5l-330 296l-22 -10q-66 -32 -109 -77t-43 -107zM328 800q0 -27 13 -53t32.5 -49.5t41.5 -43.5l41 -38l12 -10l4 2q78 38 111 88t33 104q0 24 -7.5 46t-24 38.5t-42.5 26t-62 9.5q-42 0 -71 -9.5t-47 -26t-26 -38.5t-8 -46z" />
<glyph unicode="'" horiz-adv-x="488" d="M160 896v128h168v-128l-48 -256h-72z" />
<glyph unicode="(" horiz-adv-x="576" d="M96 504v24q0 105 27.5 193.5t71 159t97.5 122.5t108 85h128v-24q-54 -42 -103 -91.5t-86.5 -113.5t-60 -145t-22.5 -186v-24q0 -105 22.5 -190t60 -153t86.5 -121.5t103 -95.5v-24h-128q-54 33 -108 89t-97.5 131t-71 167t-27.5 197z" />
<glyph unicode=")" horiz-adv-x="576" d="M48 -56q54 42 103.5 91.5t87 113.5t59.5 145t22 186v24q0 105 -22 190t-59.5 153t-87 121.5t-103.5 95.5v24h128q54 -33 108.5 -89t98 -131t70.5 -167t27 -197v-24q0 -105 -27 -193t-70.5 -158.5t-98 -123t-108.5 -85.5h-128v24z" />
<glyph unicode="*" horiz-adv-x="1056" d="M128 512l112 64l240 88l-240 96l-112 64l64 112l112 -64l200 -168l-40 256v128h128v-128l-40 -256l200 168l112 64l64 -112l-112 -64l-240 -96l240 -88l112 -64l-64 -112l-112 64l-200 160l40 -256v-128h-128v128l40 256l-200 -160l-112 -64z" />
<glyph unicode="+" horiz-adv-x="1224" d="M136 440v104h424v432h104v-432h424v-104h-424v-432h-104v432h-424z" />
<glyph unicode="," horiz-adv-x="528" d="M96 -240q27 18 53 42.5t46 52.5t32.5 57t12.5 56v32q-12 3 -26 8.5t-26 16t-20 27.5t-8 44q0 60 31 86t73 26q48 0 76 -37t28 -115q0 -42 -8 -85t-25 -83.5t-44.5 -77t-66.5 -66.5h-128v16z" />
<glyph unicode="-" horiz-adv-x="832" d="M130 504v128h574v-128h-574z" />
<glyph unicode="." horiz-adv-x="528" d="M160 96q0 48 25 80t79 32t79 -32t25 -80t-25 -80t-79 -32t-79 32t-25 80z" />
<glyph unicode="/" horiz-adv-x="768" d="M64 0v32l512 992h128v-32l-512 -992h-128z" />
<glyph unicode="0" d="M128 512q0 120 33.5 217.5t96.5 166.5t153.5 106.5t204.5 37.5t204.5 -37.5t153.5 -106.5t96.5 -166.5t33.5 -217.5t-33.5 -217.5t-96.5 -166.5t-153.5 -106.5t-204.5 -37.5t-204.5 37.5t-153.5 106.5t-96.5 166.5t-33.5 217.5zM304 512q0 -102 22 -176t62.5 -122t98 -71 t129.5 -23t130 23t98.5 71t62 122t21.5 176t-21.5 176t-62 122t-98.5 71t-130 23t-129.5 -23t-98 -71t-62.5 -122t-22 -176z" />
<glyph unicode="1" d="M208 720v144l480 176h72v-1040h-168v856l-368 -136h-16z" />
<glyph unicode="2" d="M168 0v96l272 208l126 95q60 45 106.5 91.5t75 98.5t28.5 115q0 97 -65.5 148.5t-198.5 51.5q-60 0 -135.5 -16t-160.5 -64h-16v136q21 12 58 26t82 26t94 20t94 8q108 0 188 -24.5t132.5 -68.5t78 -106t25.5 -137t-30 -137.5t-76.5 -115t-101.5 -94.5l-104 -77 l-208 -144h648v-136h-912z" />
<glyph unicode="3" d="M184 -64v136h16q27 -9 63.5 -20t79.5 -21t90 -16.5t95 -6.5q90 0 156.5 15.5t110 43.5t64.5 66t21 83q0 52 -26.5 88.5t-71.5 59.5t-104.5 33.5t-125.5 10.5h-152v104l136 24q47 8 100.5 24.5t98.5 43t75 64.5t30 90q0 80 -70.5 113t-209.5 33q-42 0 -84.5 -8t-81.5 -20 t-72.5 -26t-57.5 -26h-16v136q27 12 62 26t78.5 26t96 20t115.5 8q96 0 173 -20t131 -56t83 -86t29 -110t-23 -105.5t-58 -78.5t-77.5 -54.5t-81.5 -33.5q133 -18 206.5 -88.5t73.5 -183.5q0 -84 -39.5 -149.5t-110 -110.5t-167.5 -68.5t-211 -23.5q-54 0 -104.5 5.5 t-94.5 14.5t-81 20.5t-64 23.5z" />
<glyph unicode="4" d="M120 192v120l624 728h152v-712h192v-136h-192v-320h-168v320h-608zM280 328h448v528z" />
<glyph unicode="5" d="M184 -64v136h16q72 -29 155.5 -46.5t180.5 -17.5q81 0 146 13.5t111 41.5t70.5 70t24.5 99t-19.5 98t-64.5 67t-118.5 38.5t-181.5 12.5h-272v560h784v-136h-632v-288h120q147 0 251.5 -20t171.5 -63t98 -109.5t31 -159.5q0 -75 -34 -140.5t-100 -114.5t-163 -77 t-223 -28q-66 0 -118 5.5t-94 14.5t-76 20.5t-64 23.5z" />
<glyph unicode="6" d="M160 512q0 160 52.5 280t145.5 200t220.5 120t277.5 40h184v-144h-184q-222 0 -350 -86.5t-164 -257.5q25 19 56.5 37.5t70.5 33.5t85.5 24t101.5 9q96 0 174.5 -24t134 -72t85.5 -120t30 -168q0 -90 -34 -163.5t-95.5 -126t-147 -81.5t-187.5 -29q-105 0 -189.5 34 t-143.5 101t-91 165.5t-32 227.5zM328 520q0 -93 17 -167t52 -126t89.5 -79.5t129.5 -27.5q138 0 217 66t79 198t-72 190t-216 58q-49 0 -91.5 -10t-79 -25.5t-68 -35t-57.5 -39.5v-2z" />
<glyph unicode="7" d="M168 864v144h912v-88l-640 -1048h-160v20l624 972h-736z" />
<glyph unicode="8" d="M152 288q0 57 17.5 102t45.5 79.5t62 61t67 45.5l52 30q-104 42 -154 107t-50 159q0 69 37.5 124t99 93t140.5 58.5t163 20.5q96 0 178 -18t142 -55t94 -92.5t34 -130.5q0 -45 -18.5 -82.5t-47 -69t-62.5 -57.5l-64 -47l-34 -24q46 -18 88 -41t74.5 -55.5t52 -77 t19.5 -106.5q0 -78 -39 -139t-105 -103t-153 -64t-183 -22q-102 0 -186 19.5t-144 57.5t-93 95t-33 132zM312 296q0 -51 26 -85t68 -54t95 -28.5t107 -8.5q312 0 312 192q0 39 -14.5 68t-39.5 50.5t-58.5 37t-71.5 28.5l-214 68l-42 -28q-38 -26 -69 -50t-53 -51t-34 -60.5 t-12 -78.5zM352 872q0 -40 14.5 -66t39.5 -44t58 -31l72 -27l198 -68l26 20q30 23 57.5 46.5t48.5 49t33.5 55t12.5 65.5q0 78 -68 123t-212 45q-54 0 -104.5 -9.5t-89.5 -29.5t-62.5 -52t-23.5 -77z" />
<glyph unicode="9" d="M152 648q0 87 34.5 159t96 124t146.5 80.5t187 28.5q105 0 189.5 -34t143.5 -101t91 -165.5t32 -227.5q0 -160 -52.5 -280t-145.5 -200t-220.5 -120t-277.5 -40h-160v144h160q223 0 351 87t163 261q-22 -19 -52 -38.5t-69 -35t-86.5 -25t-106.5 -9.5q-93 0 -171 25.5 t-134 75t-87.5 122.5t-31.5 169zM320 648q0 -133 71.5 -194.5t216.5 -61.5q53 0 96.5 10.5t80 27t66 37t53.5 39.5q-1 92 -18 166t-52.5 125.5t-89.5 79t-128 27.5q-63 0 -117 -15t-94 -46.5t-62.5 -80t-22.5 -114.5z" />
<glyph unicode=":" horiz-adv-x="528" d="M160 96q0 48 25 80t79 32t79 -32t25 -80t-25 -80t-79 -32t-79 32t-25 80zM160 896q0 48 25 80t79 32t79 -32t25 -80t-25 -80t-79 -32t-79 32t-25 80z" />
<glyph unicode=";" horiz-adv-x="528" d="M96 -240q27 18 53 42.5t46 52.5t32.5 57t12.5 56v32q-12 3 -26 8.5t-26 16t-20 27.5t-8 44q0 60 31 86t73 26q48 0 76 -37t28 -115q0 -42 -8 -85t-25 -83.5t-44.5 -77t-66.5 -66.5h-128v16zM160 896q0 48 25 80t79 32t79 -32t25 -80t-25 -80t-79 -32t-79 32t-25 80z" />
<glyph unicode="&#x3c;" horiz-adv-x="1224" d="M136 424v96l936 480h16v-112l-832 -416l832 -416v-112h-16z" />
<glyph unicode="=" horiz-adv-x="1224" d="M136 256v104h952v-104h-952zM136 672v104h952v-104h-952z" />
<glyph unicode="&#x3e;" horiz-adv-x="1224" d="M130 56l830 416l-830 416v112h14l936 -480v-96l-936 -480h-14v112z" />
<glyph unicode="?" horiz-adv-x="848" d="M144 888v136h232q96 0 164.5 -16t112 -46t63.5 -73t20 -97t-17 -94.5t-47 -73.5t-71 -61.5t-89 -58.5l-120 -72v-112h-160v80q0 30 20 60t68 60l72 48q85 54 134.5 107t49.5 101q0 33 -10 54.5t-35.5 34.5t-69 18t-109.5 5h-208zM208 96q0 48 25 80t79 32t79 -32t25 -80 t-25 -80t-79 -32t-79 32t-25 80z" />
<glyph unicode="@" horiz-adv-x="1792" d="M96 352q0 161 65 288.5t179 216t269 136t335 47.5q192 0 333.5 -44t234.5 -123.5t138.5 -190t45.5 -242.5q0 -84 -23 -165.5t-72 -146t-124.5 -104.5t-180.5 -40q-52 0 -88 8t-60.5 21t-40 28.5t-27.5 30.5h-16l-34 -27q-19 -15 -46 -28.5t-64 -23t-88 -9.5t-102.5 20 t-92.5 61.5t-67 105t-26 149.5q0 93 36 166t96.5 123t140 76.5t165.5 26.5q71 0 127 -11.5t91 -28.5v-456q0 -24 6 -44.5t19.5 -35.5t37 -23.5t57.5 -8.5q63 0 104.5 29t66.5 76t35 107.5t10 123.5q0 93 -30.5 177t-100.5 148t-183 101.5t-278 37.5q-156 0 -281.5 -34.5 t-214 -103.5t-136.5 -172.5t-48 -241.5q0 -133 42 -231t121 -162.5t191.5 -95.5t253.5 -31q87 0 149 6.5t108 16.5t80 21t65 20h14v-136q-94 -38 -200 -51t-216 -13q-195 0 -340.5 46t-242.5 131.5t-145 207t-48 271.5zM704 320q0 -58 13 -97.5t37 -64t58 -35.5t76 -11 t80 13t80 43v400q-30 8 -51 12t-45 4q-54 0 -99.5 -17.5t-78.5 -51.5t-51.5 -83t-18.5 -112z" />
<glyph unicode="A" d="M0 0v24l520 1448h208l488 -1448v-24h-184l-132 400h-592l-140 -400h-168zM360 544h494l-238 728z" />
<glyph unicode="B" horiz-adv-x="1248" d="M184 0v1472h424q228 0 338 -94t110 -274q0 -54 -17.5 -102.5t-46 -89t-64.5 -71.5t-72 -49q60 -12 114 -40.5t94.5 -75t64 -111.5t23.5 -149q0 -78 -28.5 -152.5t-86.5 -133t-145 -94.5t-204 -36h-504zM360 144h296q72 0 131 15.5t101 48.5t65 84.5t23 123.5t-23.5 123.5 t-68.5 84.5t-110.5 48.5t-149.5 15.5h-264v-544zM360 832h360q30 18 59 42.5t51.5 57.5t36 75.5t13.5 96.5q0 60 -20 102.5t-56 69.5t-86 39.5t-110 12.5h-248v-496z" />
<glyph unicode="C" horiz-adv-x="1168" d="M72 736q0 171 53.5 310t147.5 237t221 151.5t274 53.5q121 0 199.5 -20t120.5 -44v-144h-16q-72 36 -145.5 50t-158.5 14q-120 0 -215 -43t-161 -121t-101 -187t-35 -241q0 -156 37.5 -273t105 -195t161.5 -117t208 -39q54 0 97.5 6t81 16.5t71.5 25t70 32.5h16v-160 q-84 -36 -172 -50t-196 -14q-162 0 -286 59t-208 161t-127 239t-43 293z" />
<glyph unicode="D" horiz-adv-x="1408" d="M184 0v1472h416q180 0 317.5 -47t230.5 -138.5t140.5 -226t47.5 -308.5q0 -156 -40 -293t-125.5 -239t-219 -161t-319.5 -59h-448zM360 144h264q132 0 231 43.5t165 124.5t99 196.5t33 259.5q0 132 -35.5 236t-106 176t-175.5 110t-243 38h-232v-1184z" />
<glyph unicode="E" horiz-adv-x="1056" d="M184 0v1472h744v-144h-568v-496h504v-144h-504v-544h600v-144h-776z" />
<glyph unicode="F" horiz-adv-x="1024" d="M184 0v1472h744v-144h-568v-496h504v-144h-504v-688h-176z" />
<glyph unicode="G" horiz-adv-x="1376" d="M72 752q0 174 58.5 311t158.5 231.5t232 144t279 49.5q60 0 112 -3t98.5 -10.5t89 -20t84.5 -30.5v-144h-16q-85 36 -178 50t-190 14q-120 0 -220 -40.5t-172 -115.5t-112 -181.5t-40 -238.5q0 -156 37.5 -275.5t105 -200.5t161.5 -122.5t208 -41.5q71 0 136.5 14 t127.5 38v492h184v-576q-48 -24 -104 -44.5t-117.5 -35.5t-127 -23.5t-131.5 -8.5q-162 0 -286 61.5t-208 166.5t-127 244.5t-43 295.5z" />
<glyph unicode="H" horiz-adv-x="1464" d="M184 0v1472h176v-624h744v624h176v-1472h-176v704h-744v-704h-176z" />
<glyph unicode="I" horiz-adv-x="552" d="M184 0v1472h176v-1472h-176z" />
<glyph unicode="J" horiz-adv-x="552" d="M-104 -112h80q108 0 158 80t50 224v1280h176v-1280q0 -90 -20 -171.5t-63.5 -143t-112 -97.5t-164.5 -36h-104v144z" />
<glyph unicode="K" d="M184 0v1472h176v-640h136l504 640h176v-24l-544 -688l544 -736v-24h-192l-512 688h-112v-688h-176z" />
<glyph unicode="L" horiz-adv-x="960" d="M184 0v1472h176v-1328h600v-144h-776z" />
<glyph unicode="M" horiz-adv-x="1728" d="M184 0v1472h184l496 -768l496 768h184v-1472h-184v1208l-480 -744h-64l-456 720v-1184h-176z" />
<glyph unicode="N" horiz-adv-x="1520" d="M184 0v1472h168l800 -1160v1160h176v-1472h-160l-808 1176v-1176h-176z" />
<glyph unicode="O" horiz-adv-x="1408" d="M72 736q0 156 41.5 293t121.5 239t198 161t271 59q159 0 277.5 -59t197.5 -161t118 -239t39 -293q0 -100 -18.5 -194.5t-54.5 -178t-90 -153.5t-124 -120t-156.5 -78t-188.5 -28q-159 0 -277.5 58t-197.5 159t-118 238.5t-39 296.5zM256 736q0 -123 27.5 -233.5 t83 -193.5t139.5 -132t198 -49t198.5 49t140 132t82.5 193.5t27 233.5t-27 233.5t-82.5 193.5t-140 132t-198.5 49t-198 -49t-139.5 -132t-83 -193.5t-27.5 -233.5z" />
<glyph unicode="P" horiz-adv-x="1200" d="M184 0v1472h408q126 0 224.5 -29.5t166 -86.5t102.5 -140.5t35 -191.5q0 -120 -33 -215t-99 -161t-165 -101t-231 -35h-232v-512h-176zM360 656h232q90 0 155 25t107 72t62 115.5t20 155.5q0 69 -22 125t-65.5 96t-108 61.5t-148.5 21.5h-232v-672z" />
<glyph unicode="Q" horiz-adv-x="1408" d="M72 736q0 156 41.5 293t121.5 239t198 161t271 59q159 0 277.5 -59t197.5 -161t118 -239t39 -293q0 -124 -28 -238.5t-83 -210t-135.5 -166t-185.5 -105.5v-16l304 -368v-16h-248l-264 368q-157 1 -274 59.5t-195 159.5t-116.5 238t-38.5 295zM256 736 q0 -123 27.5 -233.5t83 -193.5t139.5 -132t198 -49t198.5 49t140 132t82.5 193.5t27 233.5t-27 233.5t-82.5 193.5t-140 132t-198.5 49t-198 -49t-139.5 -132t-83 -193.5t-27.5 -233.5z" />
<glyph unicode="R" horiz-adv-x="1264" d="M184 0v1472h424q108 0 199 -22t157 -70t103 -124t37 -184q0 -139 -68.5 -244.5t-195.5 -171.5l344 -632v-24h-200l-296 592h-328v-592h-176zM360 736h368q30 18 64 45.5t62.5 66.5t47 90.5t18.5 117.5q0 144 -78 208t-234 64h-248v-592z" />
<glyph unicode="S" horiz-adv-x="1040" d="M88 56v160h16q36 -21 81 -37.5t91.5 -27.5t91 -17t80.5 -6q75 0 137 17.5t106 50.5t68.5 80.5t24.5 107.5q0 54 -19 95.5t-50.5 73t-72 54.5t-82.5 41l-208 88q-121 48 -188.5 141.5t-67.5 226.5q0 96 39 168t105 120t153 72t183 24q39 0 80 -3t81 -9t76.5 -15t66.5 -21 v-160h-16q-36 18 -76.5 30.5t-81 20t-78.5 10.5t-68 3q-60 0 -112.5 -12.5t-91.5 -41t-61.5 -74.5t-22.5 -112q0 -51 15 -88t39 -63t54 -43.5t60 -29.5l216 -88q60 -24 115 -57.5t97 -79.5t67 -105t25 -134q0 -108 -39.5 -189t-108.5 -135t-162.5 -81t-201.5 -27 q-45 0 -93.5 5.5t-95.5 15.5t-91 23t-80 28z" />
<glyph unicode="T" horiz-adv-x="1064" d="M0 1328v144h1072v-144h-448v-1328h-176v1328h-448z" />
<glyph unicode="U" horiz-adv-x="1424" d="M184 528v944h176v-912q0 -96 19 -175.5t61 -136.5t109 -88.5t163 -31.5t162 31.5t106.5 88.5t58 136.5t17.5 175.5v912h176v-944q0 -132 -36.5 -233.5t-105.5 -170.5t-168.5 -104.5t-225.5 -35.5q-123 0 -218.5 35.5t-160.5 104.5t-99 170.5t-34 233.5z" />
<glyph unicode="V" horiz-adv-x="1184" d="M-8 1448v24h184l424 -1288l424 1288h168v-24l-504 -1448h-208z" />
<glyph unicode="W" horiz-adv-x="1824" d="M-8 1448v24h184l392 -1288l300 908l-100 356v24h184l344 -1288l368 1288h168v-24l-448 -1448h-208l-236 832l-284 -832h-208z" />
<glyph unicode="X" horiz-adv-x="1144" d="M0 0v24l478 726l-446 698v24h184l370 -574l366 574h168v-24l-450 -680l482 -744v-24h-192l-396 618l-396 -618h-168z" />
<glyph unicode="Y" horiz-adv-x="1056" d="M-8 1448v24h184l360 -744l360 744h168v-24l-448 -858v-590h-184v576z" />
<glyph unicode="Z" horiz-adv-x="1056" d="M24 0v64l752 1264h-720v144h952v-64l-744 -1264h760v-144h-1000z" />
<glyph unicode="[" horiz-adv-x="576" d="M128 -144v1216h384v-128h-224v-960h224v-128h-384z" />
<glyph unicode="\" horiz-adv-x="768" d="M64 992v32h128l512 -992v-32h-128z" />
<glyph unicode="]" horiz-adv-x="576" d="M64 -16h224v960h-224v128h384v-1216h-384v128z" />
<glyph unicode="^" d="M80 224v16l480 880h96l480 -880v-16h-112l-416 784l-416 -784h-112z" />
<glyph unicode="_" horiz-adv-x="1224" d="M0 -88h1216v-96h-1216v96z" />
<glyph unicode="`" horiz-adv-x="1104" d="M128 1440v32h176l296 -288v-32h-96z" />
<glyph unicode="a" horiz-adv-x="1008" d="M16 0v16l400 1008h200l376 -1008v-16h-168l-100 272h-452l-104 -272h-152zM324 408h352l-172 472z" />
<glyph unicode="b" horiz-adv-x="1104" d="M192 0v1024h352q105 0 177 -20t116 -55t63.5 -83.5t19.5 -105.5q0 -72 -35 -126t-101 -90q102 -18 163 -82t61 -166q0 -51 -17 -103.5t-60.5 -95.5t-118 -70t-188.5 -27h-432zM352 136h272q63 0 106 10.5t69 30.5t37.5 50t11.5 69q0 72 -54.5 116t-169.5 44h-272v-320z M352 584h320q30 21 47.5 41t26.5 41t11.5 44t2.5 50q0 60 -51 94t-165 34h-192v-304z" />
<glyph unicode="c" horiz-adv-x="1040" d="M96 512q0 117 44 214t120.5 167t180 108.5t223.5 38.5q59 0 105.5 -6t82.5 -15t62 -19l46 -16v-136h-16l-66 22q-32 10 -66 18t-70.5 12t-77.5 4q-99 0 -174 -27.5t-125 -78.5t-75.5 -123.5t-25.5 -162.5q0 -99 27.5 -172.5t79.5 -122.5t126 -73t167 -24q53 0 95.5 7 t78.5 17q35 12 65 24l57 24h16v-136q-66 -30 -152 -51t-192 -21q-138 0 -239 42.5t-167 115t-98 168.5t-32 202z" />
<glyph unicode="d" horiz-adv-x="1232" d="M192 0v1024h302q175 0 297 -37t198.5 -104t111.5 -159.5t35 -203.5q0 -102 -28 -196t-97 -166t-187 -115t-298 -43h-334zM352 136h176q128 0 212.5 26.5t135 76.5t71.5 123t21 166q0 84 -25.5 151t-81.5 113.5t-146 71t-219 24.5h-144v-752z" />
<glyph unicode="e" horiz-adv-x="1024" d="M192 0v1024h688v-136h-528v-280h464v-136h-464v-336h560v-136h-720z" />
<glyph unicode="f" horiz-adv-x="928" d="M192 0v1024h688v-136h-528v-280h464v-136h-464v-472h-160z" />
<glyph unicode="g" horiz-adv-x="1200" d="M96 520q0 117 47.5 213t128.5 164t188.5 105.5t227.5 37.5q59 0 106 -4t87.5 -11.5t75 -18t67.5 -22.5v-136h-16q-42 15 -80 25.5t-75.5 17.5t-77.5 10t-87 3q-99 0 -177.5 -26t-133.5 -75.5t-84 -121t-29 -161.5q0 -106 29 -181.5t82 -124t128.5 -71.5t168.5 -23 q69 0 121.5 10.5t102.5 27.5v306h160v-400l-93 -31q-47 -15 -97.5 -25.5t-106 -17t-119.5 -6.5q-144 0 -247 43.5t-169 117t-97 171t-31 204.5z" />
<glyph unicode="h" horiz-adv-x="1264" d="M192 0v1024h160v-408h560v408h160v-1024h-160v480h-560v-480h-160z" />
<glyph unicode="i" horiz-adv-x="536" d="M192 0v1024h160v-1024h-160z" />
<glyph unicode="j" horiz-adv-x="536" d="M-64 -120h48q109 0 158.5 61.5t49.5 194.5v888h160v-888q0 -84 -21 -156t-64.5 -124.5t-110 -82t-156.5 -29.5h-64v136z" />
<glyph unicode="k" horiz-adv-x="1088" d="M192 0v1024h160v-432h128l400 416h176v-16l-456 -464l456 -512v-16h-192l-400 448h-112v-448h-160z" />
<glyph unicode="l" horiz-adv-x="896" d="M192 0v1024h160v-888h512v-136h-672z" />
<glyph unicode="m" horiz-adv-x="1408" d="M192 0v1024h160l352 -504l352 504h160v-1024h-160v808l-320 -472h-64l-320 456v-792h-160z" />
<glyph unicode="n" horiz-adv-x="1296" d="M192 0v1024h144l608 -758v758h160v-1024h-144l-608 774v-774h-160z" />
<glyph unicode="o" horiz-adv-x="1264" d="M96 512q0 102 34.5 197.5t102 169t167.5 117.5t232 44t232.5 -44t168 -117.5t101.5 -169t34 -197.5t-34 -197t-101.5 -168.5t-168 -118t-232.5 -44.5t-232 44.5t-167.5 118t-102 168.5t-34.5 197zM264 512q0 -84 24 -155.5t70.5 -124t115 -82.5t158.5 -30t159 30 t115.5 82.5t70 124t23.5 155.5t-23.5 156t-70 124.5t-115.5 82t-159 29.5t-158.5 -29.5t-115 -82t-70.5 -124.5t-24 -156z" />
<glyph unicode="p" horiz-adv-x="1024" d="M192 0v1024h352q114 0 193.5 -28t129 -76t71.5 -112t22 -136t-25 -136t-79 -112t-139 -76t-205 -28h-160v-320h-160zM352 456h160q84 0 139.5 14.5t88.5 42.5t46.5 68t13.5 91q0 42 -12 81t-41 69t-78.5 48t-124.5 18h-192v-432z" />
<glyph unicode="q" horiz-adv-x="1264" d="M96 512q0 102 34.5 197.5t102 169t167.5 117.5t232 44t232.5 -44t168 -117.5t101.5 -169t34 -197.5q0 -85 -23.5 -165t-70 -147.5t-115 -117.5t-159.5 -76v-6l288 -320v-16h-200l-260 320q-131 1 -230.5 45t-166.5 117.5t-101 168.5t-34 197zM264 512q0 -84 24 -155.5 t70.5 -124t115 -82.5t158.5 -30t159 30t115.5 82.5t70 124t23.5 155.5t-23.5 156t-70 124.5t-115.5 82t-159 29.5t-158.5 -29.5t-115 -82t-70.5 -124.5t-24 -156z" />
<glyph unicode="r" horiz-adv-x="1072" d="M192 0v1024h296q211 0 321.5 -72.5t110.5 -223.5q0 -92 -52.5 -165t-155.5 -115l320 -432v-16h-176l-280 384h-224v-384h-160zM352 520h272q27 15 51.5 33.5t43.5 42.5t30 54.5t11 69.5q0 48 -14.5 80.5t-46.5 52t-84 27.5t-127 8h-136v-368z" />
<glyph unicode="s" horiz-adv-x="912" d="M64 48v144h16q36 -15 76 -28t81 -23t82.5 -15.5t80.5 -5.5q139 0 205.5 40t66.5 112q0 36 -13.5 63t-38 47.5t-58 36.5t-74.5 29l-168 56q-113 38 -168.5 102.5t-55.5 161.5q0 66 30 117t84 85.5t129 52t165 17.5q36 0 79 -4t85 -11.5t79 -18t61 -22.5v-136h-16 q-35 13 -74 23t-77 17.5t-73 11.5t-64 4q-117 0 -182.5 -28t-65.5 -100q0 -33 12 -55.5t33 -39t48.5 -27.5t58.5 -22l160 -56q56 -19 104.5 -44.5t84 -60t55.5 -81.5t20 -110q0 -69 -30.5 -124t-86.5 -93t-136 -58.5t-179 -20.5q-97 0 -180.5 17t-155.5 47z" />
<glyph unicode="t" horiz-adv-x="952" d="M32 888v136h888v-136h-360v-888h-160v888h-368z" />
<glyph unicode="u" horiz-adv-x="1248" d="M176 400v624h160v-608q0 -63 15 -117t49.5 -94t91 -62.5t140.5 -22.5q81 0 135 21.5t86 60.5t45.5 93.5t13.5 120.5v608h160v-624q0 -90 -26 -166t-81.5 -131.5t-142 -87t-206.5 -31.5q-117 0 -200.5 33.5t-136.5 90.5t-78 132.5t-25 159.5z" />
<glyph unicode="v" horiz-adv-x="1008" d="M16 1008v16h168l320 -880l336 880h152v-16l-400 -1008h-200z" />
<glyph unicode="w" horiz-adv-x="1632" d="M16 1008v16h168l304 -880l254 666l-70 198v16h168l304 -880l320 880h152v-16l-384 -1008h-200l-216 606l-240 -606h-200z" />
<glyph unicode="x" horiz-adv-x="944" d="M16 0v16l368 504l-352 488v16h168l276 -382l284 382h152v-16l-354 -480l370 -512v-16h-168l-294 406l-298 -406h-152z" />
<glyph unicode="y" horiz-adv-x="896" d="M0 1008v16h168l288 -504l296 504h144v-16l-376 -628v-380h-160v382z" />
<glyph unicode="z" horiz-adv-x="928" d="M32 0v48l600 840h-568v136h816v-44l-600 -844h616v-136h-864z" />
<glyph unicode="{" horiz-adv-x="832" d="M64 416v128q84 6 134.5 19t77.5 35.5t35.5 56t8.5 81.5v96q0 84 23 144.5t65 99.5t101 57.5t131 18.5h128v-128h-120q-90 0 -133 -51t-43 -141v-96q0 -60 -14.5 -103t-43 -73t-70.5 -49t-96 -31q54 -12 96 -31t70.5 -49t43 -73t14.5 -103v-128q0 -63 8.5 -106t28.5 -69 t54 -37.5t85 -11.5h120v-128h-128q-72 0 -131 16t-101 53.5t-65 99t-23 151.5v160q0 48 -8.5 83t-35.5 58t-77.5 35.5t-134.5 15.5z" />
<glyph unicode="|" horiz-adv-x="560" d="M232 -448v2048h96v-2048h-96z" />
<glyph unicode="}" horiz-adv-x="832" d="M64 -128h120q51 0 85 11.5t54 37.5t28.5 69t8.5 106v128q0 60 15 103t43.5 73t70 49t95.5 31q-54 12 -95.5 31t-70 49t-43.5 73t-15 103v112q0 91 -42.5 133.5t-133.5 42.5h-120v128h128q72 0 131 -18.5t101 -57.5t65 -99.5t23 -144.5v-96q0 -48 8.5 -81.5t35.5 -56 t77.5 -35.5t134.5 -19v-128q-84 -3 -134.5 -15.5t-77.5 -35.5t-35.5 -58t-8.5 -83v-160q0 -90 -23 -151.5t-65 -99t-101 -53.5t-131 -16h-128v128z" />
<glyph unicode="~" d="M128 424v88q15 27 38.5 53t54.5 46t68 32.5t79 12.5q48 0 91.5 -14t84.5 -35.5t79 -46.5t75.5 -46.5t74.5 -35.5t75 -14q72 0 127 35t97 101h16v-88q-15 -27 -38.5 -53t-54.5 -46t-68 -32.5t-79 -12.5q-48 0 -91.5 14t-84.5 35.5t-79 46.5t-75.5 46.5t-74.5 35.5t-75 14 q-72 0 -127 -35t-97 -101h-16z" />
<glyph unicode="&#xa2;" d="M120 512q0 111 38.5 203t106 159.5t160 109.5t199.5 52v180h136v-178q45 -3 83 -10t69.5 -15t55.5 -16l40 -13v-136h-16q-68 24 -140.5 40t-155.5 16q-99 0 -174 -27.5t-125 -78.5t-75.5 -123.5t-25.5 -162.5q0 -99 27.5 -172.5t79.5 -122.5t126 -73t167 -24q53 0 98 7 t83.5 17.5t71 23t59.5 24.5h16v-136q-54 -24 -126.5 -42t-153.5 -26v-244h-136v242q-124 8 -215.5 51.5t-152 114t-90.5 162.5t-30 198z" />
<glyph unicode="&#xa3;" d="M120 0v136h200v296h-200v136h200v64q0 108 32.5 183t89.5 121.5t134.5 67t167.5 20.5h280v-136h-288q-69 0 -116.5 -17.5t-76.5 -49.5t-42 -78t-13 -103v-72h336v-136h-336v-296h600v-136h-968z" />
<glyph unicode="&#xa5;" d="M136 1008v16h176l312 -504l312 504h144v-16l-312 -488h288v-136h-368v-128h368v-136h-368v-120h-168v120h-344v136h344v128h-344v136h264z" />
<glyph unicode="&#xa8;" horiz-adv-x="1104" d="M248 1312q0 48 28 80t76 32t76 -32t28 -80t-28 -80t-76 -32t-76 32t-28 80zM664 1312q0 48 28 80t76 32t76 -32t28 -80t-28 -80t-76 -32t-76 32t-28 80z" />
<glyph unicode="&#xa9;" horiz-adv-x="1392" d="M96 512q0 117 43.5 214t122.5 167t189.5 108.5t244.5 38.5t244.5 -38.5t189.5 -108.5t122.5 -167t43.5 -214q0 -118 -43.5 -215t-122.5 -166.5t-189.5 -108t-244.5 -38.5t-244.5 38.5t-189.5 108t-122.5 166.5t-43.5 215zM216 512q0 -97 30 -176.5t90 -136.5t150 -88 t210 -31t210 31t150 88t90 136.5t30 176.5q0 96 -30 175.5t-90 136.5t-150 88.5t-210 31.5t-210 -31.5t-150 -88.5t-90 -136.5t-30 -175.5zM384 520q0 78 30.5 133t80 89.5t112.5 50t129 15.5q22 0 45 -2.5t45.5 -7t42.5 -10.5t35 -12v-72q-36 12 -80 22t-88 10 q-45 0 -85.5 -12t-71.5 -37.5t-49 -66.5t-18 -100t18 -101.5t49 -69.5t71.5 -40t85.5 -13q53 0 92.5 10t75.5 22v-72q-30 -12 -72.5 -22t-95.5 -10q-72 0 -136 16t-112 51t-76 91.5t-28 137.5z" />
<glyph unicode="&#xab;" horiz-adv-x="1120" d="M64 424v192l448 304h32v-136l-368 -264l368 -264v-136h-32zM544 424v192l448 304h32v-136l-368 -264l368 -264v-136h-32z" />
<glyph unicode="&#xad;" horiz-adv-x="832" d="M130 504v128h574v-128h-574z" />
<glyph unicode="&#xae;" horiz-adv-x="1392" d="M96 512q0 117 43.5 214t122.5 167t189.5 108.5t244.5 38.5t244.5 -38.5t189.5 -108.5t122.5 -167t43.5 -214q0 -118 -43.5 -215t-122.5 -166.5t-189.5 -108t-244.5 -38.5t-244.5 38.5t-189.5 108t-122.5 166.5t-43.5 215zM216 512q0 -97 30 -176.5t90 -136.5t150 -88 t210 -31t210 31t150 88t90 136.5t30 176.5q0 96 -30 175.5t-90 136.5t-150 88.5t-210 31.5t-210 -31.5t-150 -88.5t-90 -136.5t-30 -175.5zM464 224v576h216q50 0 97.5 -7t84.5 -26.5t59.5 -54t22.5 -88.5q0 -60 -39.5 -105t-104.5 -63l160 -216v-16h-128l-136 192h-104 v-192h-128zM592 488h86q29 0 54.5 8.5t44 25.5t29 42.5t10.5 59.5q0 29 -10.5 49t-28.5 32t-43 17.5t-54 5.5h-88v-240z" />
<glyph unicode="&#xb4;" horiz-adv-x="1104" d="M520 1152v32l296 288h176v-32l-376 -288h-96z" />
<glyph unicode="&#xb8;" horiz-adv-x="1104" d="M336 -320h16l62 -20q36 -12 90 -12q48 0 80 19t32 61q0 21 -10 36t-26 25.5t-36 18.5l-40 16l-64 24v24l88 96h112l-72 -80l48 -16q18 -6 39 -17t39 -28t30 -41.5t12 -57.5q0 -39 -16 -71.5t-46 -55.5t-73 -36t-97 -13t-99 14t-69 26v88z" />
<glyph unicode="&#xbb;" horiz-adv-x="1120" d="M96 120v136l368 264l-368 264v136h34l446 -304v-192l-446 -304h-34zM576 120v136l368 264l-368 264v136h32l448 -304v-192l-448 -304h-32z" />
<glyph unicode="&#x2c6;" horiz-adv-x="1104" d="M264 1152v32l224 288h144l224 -288v-32h-88l-208 216l-208 -216h-88z" />
<glyph unicode="&#x2da;" horiz-adv-x="1104" d="M288 1312q0 42 20 78.5t56 63.5t86 42.5t110 15.5t110 -15.5t86 -42.5t56 -63.5t20 -78.5t-20 -78.5t-56 -63.5t-86 -42.5t-110 -15.5t-110 15.5t-86 42.5t-56 63.5t-20 78.5zM384 1312q0 -60 45.5 -90t130.5 -30t130.5 30t45.5 90t-45.5 90t-130.5 30t-130.5 -30 t-45.5 -90z" />
<glyph unicode="&#x2dc;" horiz-adv-x="1104" d="M184 1152v32q3 54 17 106t40 92.5t65.5 65t93.5 24.5q44 0 77 -16t59.5 -40t47.5 -52t42 -52t43.5 -40t50.5 -16q36 0 58 20.5t35 52t18.5 69.5t8.5 74h96v-32q-3 -54 -17 -105.5t-40 -92t-65.5 -65.5t-93.5 -25q-44 0 -77 16t-59.5 40t-47.5 52t-42 52t-43.5 40 t-50.5 16q-36 0 -58 -20t-35 -51.5t-18.5 -70t-8.5 -74.5h-96z" />
<glyph unicode="&#x2000;" horiz-adv-x="800" />
<glyph unicode="&#x2001;" horiz-adv-x="1600" />
<glyph unicode="&#x2002;" horiz-adv-x="800" />
<glyph unicode="&#x2003;" horiz-adv-x="1600" />
<glyph unicode="&#x2004;" horiz-adv-x="533" />
<glyph unicode="&#x2005;" horiz-adv-x="400" />
<glyph unicode="&#x2006;" horiz-adv-x="266" />
<glyph unicode="&#x2007;" horiz-adv-x="266" />
<glyph unicode="&#x2008;" horiz-adv-x="200" />
<glyph unicode="&#x2009;" horiz-adv-x="320" />
<glyph unicode="&#x200a;" horiz-adv-x="88" />
<glyph unicode="&#x2010;" horiz-adv-x="832" d="M130 504v128h574v-128h-574z" />
<glyph unicode="&#x2011;" horiz-adv-x="832" d="M130 504v128h574v-128h-574z" />
<glyph unicode="&#x2012;" horiz-adv-x="832" d="M130 504v128h574v-128h-574z" />
<glyph unicode="&#x2013;" horiz-adv-x="1024" d="M130 504v128h768v-128h-768z" />
<glyph unicode="&#x2014;" horiz-adv-x="2048" d="M130 504v128h1792v-128h-1792z" />
<glyph unicode="&#x2018;" horiz-adv-x="528" d="M160 712q0 42 8 85t25 83.5t44.5 77t66.5 66.5h128v-16q-27 -18 -53 -42.5t-46 -52.5t-32.5 -57t-12.5 -56v-16q12 -3 26 -10.5t26 -21t20 -33.5t8 -47q0 -60 -31 -86t-73 -26q-48 0 -76 37t-28 115z" />
<glyph unicode="&#x2019;" horiz-adv-x="528" d="M96 560v16q27 18 53 42.5t46 52.5t32.5 57t12.5 56v16q-12 3 -26 11t-26 21.5t-20 33t-8 46.5q0 60 31 86t73 26q48 0 76 -37t28 -115q0 -42 -8 -84.5t-25 -83t-44.5 -77.5t-66.5 -67h-128z" />
<glyph unicode="&#x201a;" horiz-adv-x="528" d="M96 -240q27 18 53 42.5t46 52.5t32.5 57t12.5 56v32q-12 3 -26 8.5t-26 16t-20 27.5t-8 44q0 60 31 86t73 26q48 0 76 -37t28 -115q0 -42 -8 -85t-25 -83.5t-44.5 -77t-66.5 -66.5h-128v16z" />
<glyph unicode="&#x201c;" horiz-adv-x="880" d="M160 712q0 42 8 85t25 83.5t44.5 77t66.5 66.5h128v-16q-27 -18 -53 -42.5t-46 -52.5t-32.5 -57t-12.5 -56v-16q12 -3 26 -10.5t26 -21t20 -33.5t8 -47q0 -60 -31 -86t-73 -26q-48 0 -76 37t-28 115zM512 712q0 42 8 85t25 83.5t44.5 77t66.5 66.5h128v-16 q-27 -18 -53 -42.5t-46 -52.5t-32.5 -57t-12.5 -56v-16q12 -3 26 -10.5t26 -21t20 -33.5t8 -47q0 -60 -31 -86t-73 -26q-48 0 -76 37t-28 115z" />
<glyph unicode="&#x201d;" horiz-adv-x="880" d="M96 560v16q27 18 53 42.5t46 52.5t32.5 57t12.5 56v16q-12 3 -26 11t-26 21.5t-20 33t-8 46.5q0 60 31 86t73 26q48 0 76 -37t28 -115q0 -42 -8 -84.5t-25 -83t-44.5 -77.5t-66.5 -67h-128zM448 560v16q27 18 53 42.5t46 52.5t32.5 57t12.5 56v16q-12 3 -26 11t-26 21.5 t-20 33t-8 46.5q0 60 31 86t73 26q48 0 76 -37t28 -115q0 -42 -8 -84.5t-25 -83t-44.5 -77.5t-66.5 -67h-128z" />
<glyph unicode="&#x201e;" horiz-adv-x="880" d="M96 -240q27 18 53 42.5t46 52.5t32.5 57t12.5 56v32q-12 3 -26 8.5t-26 16t-20 27.5t-8 44q0 60 31 86t73 26q48 0 76 -37t28 -115q0 -42 -8 -85t-25 -83.5t-44.5 -77t-66.5 -66.5h-128v16zM448 -240q27 18 53 42.5t46 52.5t32.5 57t12.5 56v32q-12 3 -26 8.5t-26 16 t-20 27.5t-8 44q0 60 31 86t73 26q48 0 76 -37t28 -115q0 -42 -8 -85t-25 -83.5t-44.5 -77t-66.5 -66.5h-128v16z" />
<glyph unicode="&#x2022;" horiz-adv-x="1224" d="M192 544q0 86 33 161.5t89.5 132t132.5 89.5t161 33q86 0 161.5 -33t132 -89.5t89.5 -132t33 -161.5q0 -85 -33 -161t-89.5 -132.5t-132 -89.5t-161.5 -33q-85 0 -161 33t-132.5 89.5t-89.5 132.5t-33 161z" />
<glyph unicode="&#x2026;" horiz-adv-x="1632" d="M160 96q0 48 33 80t87 32t87 -32t33 -80t-33 -80t-87 -32t-87 32t-33 80zM688 96q0 48 33 80t87 32t87 -32t33 -80t-33 -80t-87 -32t-87 32t-33 80zM1216 96q0 48 33 80t87 32t87 -32t33 -80t-33 -80t-87 -32t-87 32t-33 80z" />
<glyph unicode="&#x202f;" horiz-adv-x="320" />
<glyph unicode="&#x2039;" horiz-adv-x="642" d="M64 424v192l448 304h32v-136l-368 -264l368 -264v-136h-32z" />
<glyph unicode="&#x203a;" horiz-adv-x="642" d="M96 120v136l368 264l-368 264v136h34l446 -304v-192l-446 -304h-34z" />
<glyph unicode="&#x205f;" horiz-adv-x="400" />
<glyph unicode="&#x20ac;" d="M96 296v136h168v128h-168v136h168v8q0 87 34 150.5t98.5 104.5t158 61t213.5 20q60 0 110.5 -5t91 -12.5t70 -15.5t48.5 -15v-136h-16q-138 48 -304 48q-89 0 -153 -10t-104.5 -33t-59.5 -61.5t-19 -95.5v-8h432v-136h-432v-128h432v-136h-432v-8q0 -90 87 -129t249 -39 q54 0 97.5 4.5t81 12t71.5 17.5t70 22h16v-144q-84 -24 -172 -36t-196 -12q-240 0 -356 80t-116 224v8h-168z" />
<glyph unicode="&#x2122;" horiz-adv-x="1552" d="M64 904v120h544v-120h-200v-520h-144v520h-200zM704 384v640h112l250 -360l230 360h112v-640h-144v336l-176 -256h-64l-176 240v-320h-144z" />
<glyph unicode="&#xe000;" horiz-adv-x="1025" d="M0 1025h1025v-1025h-1025v1025z" />
</font>
</defs>
</svg>
